<?xml version="1.0" standalone="no"?><!DOCTYPE svg PUBLIC "-//W3C//DTD SVG 1.1//EN" "http://www.w3.org/Graphics/SVG/1.1/DTD/svg11.dtd"><svg t="1513624080569" class="icon" style="" viewBox="0 0 2658 1024" version="1.1" xmlns="http://www.w3.org/2000/svg" p-id="7397" xmlns:xlink="http://www.w3.org/1999/xlink" width="519.140625" height="200"><defs><style type="text/css"></style></defs><path d="M1020.276364 346.298182h-135.705859a19.031919 19.031919 0 0 0-18.618182 15.72202l-55.02707 347.953131a11.170909 11.170909 0 0 0 11.170909 12.825859h64.956767a19.031919 19.031919 0 0 0 18.618182-15.72202l14.894546-93.918384a18.618182 18.618182 0 0 1 18.618181-15.72202h41.373738a139.429495 139.429495 0 0 0 154.32404-129.086061A104.675556 104.675556 0 0 0 1117.090909 381.052121a124.121212 124.121212 0 0 0-98.883232-34.753939z m14.06707 127.017374c-7.447273 48.82101-44.683636 48.82101-80.678788 48.82101h-18.618181l14.480808-91.022223a11.170909 11.170909 0 0 1 11.170909-9.515959h9.515959c24.410505 0 47.579798 0 59.578182 14.067071a45.097374 45.097374 0 0 1 6.619798 37.650101z m389.740606 0h-63.301818a11.170909 11.170909 0 0 0-11.170909 9.515959l-2.896161 18.204445-4.137374-6.619798a92.263434 92.263434 0 0 0-76.541414-27.306667 149.359192 149.359192 0 0 0-144.808081 130.74101 124.121212 124.121212 0 0 0 23.996768 99.710707 101.779394 101.779394 0 0 0 82.747474 33.09899 124.121212 124.121212 0 0 0 89.78101-37.236364l-2.896161 18.204445a11.170909 11.170909 0 0 0 11.170909 12.825858h58.33697a19.031919 19.031919 0 0 0 18.618181-15.72202l35.167677-222.176969a11.170909 11.170909 0 0 0-11.584646-12.825859z m-90.608484 126.189899A72.40404 72.40404 0 0 1 1261.89899 661.979798a50.062222 50.062222 0 0 1-53.785859-62.888081 72.817778 72.817778 0 0 1 74.472728-64.54303 54.613333 54.613333 0 0 1 41.373737 17.790707 56.268283 56.268283 0 0 1 11.170909 45.511111z m437.734141-127.844849h-64.956768a19.031919 19.031919 0 0 0-15.72202 8.274748l-90.194747 132.395959-38.063839-127.431111a19.031919 19.031919 0 0 0-18.204444-13.653333h-63.715556a11.170909 11.170909 0 0 0-10.757171 14.894545l71.990303 211.006061-67.439192 95.159596a11.170909 11.170909 0 0 0 9.102222 17.790707h65.370505a19.031919 19.031919 0 0 0 15.308283-8.274748l215.143434-312.371717a11.170909 11.170909 0 0 0-9.102222-17.790707z m0 0" fill="#223A7A" p-id="7398"></path><path d="M1985.939394 346.298182h-134.050909a18.618182 18.618182 0 0 0-18.618182 15.72202L1779.070707 709.973333a11.170909 11.170909 0 0 0 11.170909 12.825859h69.507879a12.825859 12.825859 0 0 0 12.825859-11.170909l15.72202-98.469495a18.618182 18.618182 0 0 1 18.618182-15.72202h41.373737a139.429495 139.429495 0 0 0 154.32404-129.086061 104.261818 104.261818 0 0 0-17.376969-87.712323 124.121212 124.121212 0 0 0-99.29697-34.340202z m15.72202 127.017374c-7.447273 48.82101-44.683636 48.82101-80.678788 48.82101H1903.191919l14.480808-91.022223a11.170909 11.170909 0 0 1 11.170909-9.515959h9.51596c24.410505 0 47.579798 0 59.578182 14.067071a45.097374 45.097374 0 0 1 6.619798 37.650101z m389.740606 0h-63.301818a11.170909 11.170909 0 0 0-11.170909 9.515959l-2.896162 18.204445-4.551111-6.619798a92.263434 92.263434 0 0 0-75.300202-28.961617 149.359192 149.359192 0 0 0-144.808081 130.741011 124.121212 124.121212 0 0 0 20.686869 99.710707 101.779394 101.779394 0 0 0 82.747475 33.09899 124.121212 124.121212 0 0 0 89.78101-37.236364l-2.896162 18.204444a11.170909 11.170909 0 0 0 11.170909 12.825859h58.33697a18.618182 18.618182 0 0 0 18.618182-15.72202l35.167677-222.17697a11.170909 11.170909 0 0 0-11.170909-12.825859z m-90.608485 126.189899A72.40404 72.40404 0 0 1 2228.803232 661.979798a50.062222 50.062222 0 0 1-53.785858-62.888081 72.817778 72.817778 0 0 1 72.817778-62.474343 54.613333 54.613333 0 0 1 41.373737 17.790707 55.854545 55.854545 0 0 1 11.170909 45.511111z m165.49495-242.450101l-55.854546 354.159191a11.170909 11.170909 0 0 0 11.170909 12.825859H2482.424242a18.618182 18.618182 0 0 0 18.618182-15.72202l55.027071-347.539394a11.170909 11.170909 0 0 0-11.170909-12.825859H2482.424242a11.170909 11.170909 0 0 0-11.170909 9.51596z m0 0" fill="#2391C8" p-id="7399"></path><path d="M248.242424 790.652121l10.343435-65.784242H124.121212L201.490101 237.89899a6.206061 6.206061 0 0 1 2.068687-3.723636 6.206061 6.206061 0 0 1 4.137374 0h186.181818a165.494949 165.494949 0 0 1 126.603636 38.063838 86.884848 86.884848 0 0 1 20.273131 38.063838 137.360808 137.360808 0 0 1 0 52.544647v14.894545l10.757172 5.792323a73.231515 73.231515 0 0 1 21.100606 16.135758 74.886465 74.886465 0 0 1 17.37697 38.477576 162.598788 162.598788 0 0 1-2.482424 55.854545 196.525253 196.525253 0 0 1-22.755556 63.301818 129.913535 129.913535 0 0 1-36.408889 41.373738 146.876768 146.876768 0 0 1-48.82101 21.928081 242.863838 242.863838 0 0 1-60.819394 7.033535h-14.894545a43.442424 43.442424 0 0 0-41.373738 36.822626v5.792323l-18.204444 116.260202v4.137374a3.723636 3.723636 0 0 1 0 2.482424z m0 0" fill="#223A7A" p-id="7400"></path><path d="M561.027879 364.502626v10.757172c-24.410505 124.121212-108.399192 169.218586-215.557172 169.218586H289.616162a26.479192 26.479192 0 0 0-26.065455 22.341818l-28.961616 177.907071-7.86101 50.062222a14.067071 14.067071 0 0 0 13.653333 16.135758h97.228283a23.169293 23.169293 0 0 0 23.169293-19.445657v-4.964849l18.204444-115.846464v-6.206061a23.169293 23.169293 0 0 1 23.169293-19.859394h14.480808c93.918384 0 165.494949-38.063838 188.664243-148.11798a126.189899 126.189899 0 0 0-17.790707-111.70909 92.677172 92.677172 0 0 0-26.479192-20.273132z m0 0" fill="#2391C8" p-id="7401"></path><path d="M535.376162 354.159192l-11.584647-2.896162-12.412121-2.482424a302.855758 302.855758 0 0 0-47.993535-3.309899H317.336566a23.169293 23.169293 0 0 0-23.169293 19.859394l-31.030303 196.525253v5.792323a26.479192 26.479192 0 0 1 26.479192-22.755556h53.785858c107.15798 0 191.146667-43.442424 215.557172-169.218586v-10.757171a131.154747 131.154747 0 0 0-20.273131-8.274748z m0 0" fill="#1F2C62" p-id="7402"></path><path d="M294.58101 364.916364a23.169293 23.169293 0 0 1 23.169293-19.445657h145.635556a303.269495 303.269495 0 0 1 47.993535 3.309899l12.412121 2.482424 11.584647 2.896162h5.378585a133.223434 133.223434 0 0 1 20.273132 8.688485 118.742626 118.742626 0 0 0-25.23798-106.744243 184.940606 184.940606 0 0 0-141.911919-43.442424H206.868687a26.479192 26.479192 0 0 0-26.065455 22.341818L103.848081 726.109091a16.135758 16.135758 0 0 0 15.72202 18.618182h115.01899l28.961616-182.871919z m0 0" fill="#223A7A" p-id="7403"></path></svg>